<svg width="29" height="43" viewBox="0 0 29 43" fill="none" xmlns="http://www.w3.org/2000/svg">
<path fill-rule="evenodd" clip-rule="evenodd" d="M0.464844 5.61545C0.464844 4.31054 0.983213 3.05909 1.90592 2.13639C2.82862 1.21368 4.08008 0.695313 5.38498 0.695312H23.2764C24.5813 0.695313 25.8327 1.21368 26.7554 2.13639C27.6781 3.05909 28.1965 4.31054 28.1965 5.61545V37.82C28.1965 39.1249 27.6781 40.3763 26.7554 41.299C25.8327 42.2217 24.5813 42.7401 23.2764 42.7401H5.38498C4.08008 42.7401 2.82862 42.2217 1.90592 41.299C0.983213 40.3763 0.464844 39.1249 0.464844 37.82V5.61545ZM5.38498 3.37902C4.15047 3.37902 3.14855 4.38094 3.14855 5.61545V37.82C3.14855 39.0545 4.15047 40.0564 5.38498 40.0564H23.2764C24.5109 40.0564 25.5128 39.0545 25.5128 37.82V5.61545C25.5128 4.38094 24.5109 3.37902 23.2764 3.37902H5.38498Z" fill="#7A8DF2"/>
</svg>
