<svg width="46" height="47" viewBox="0 0 46 47" fill="none" xmlns="http://www.w3.org/2000/svg">
<path d="M33.7125 28.0832C33.2577 27.8557 30.301 26.4912 29.8462 26.2637C29.3913 26.0363 28.9364 26.0363 28.4816 26.4912C28.0267 26.946 27.117 28.3106 26.6621 28.7655C26.4347 29.2203 25.9798 29.2203 25.5249 28.9929C23.9329 28.3106 22.3409 27.4009 20.9763 26.2637C19.8391 25.1266 18.702 23.762 17.7922 22.3974C17.5648 21.9425 17.7922 21.4876 18.0197 21.2602C18.2471 21.0328 18.4745 20.5779 18.9294 20.3505C19.1568 20.123 19.3843 19.6682 19.3843 19.4407C19.6117 19.2133 19.6117 18.7584 19.3843 18.531C19.1568 18.3036 18.0197 15.5744 17.5648 14.4372C17.3374 12.8452 16.8825 12.8452 16.4276 12.8452H15.2905C14.8356 12.8452 14.1533 13.3 13.9259 13.5275C12.5613 14.8921 11.879 16.4841 11.879 18.3036C12.1064 20.3505 12.7887 22.3974 14.1533 24.2168C16.6551 27.8558 19.8391 30.8124 23.7055 32.6318C24.8426 33.0867 25.7524 33.5416 26.8895 33.769C28.0267 34.2239 29.1639 34.2239 30.5285 33.9964C32.1205 33.769 33.4851 32.6318 34.3948 31.2672C34.8497 30.3575 34.8497 29.4478 34.6223 28.538L33.7125 28.0832ZM39.3983 7.38679C30.5285 -1.4831 16.2002 -1.4831 7.33031 7.38679C0.0524583 14.6646 -1.31214 25.8089 3.69139 34.6787L0.507324 46.2778L12.5613 43.0938C15.9728 44.9132 19.6117 45.8229 23.2506 45.8229C35.7594 45.8229 45.7665 35.8159 45.7665 23.3071C45.9939 17.3938 43.4921 11.708 39.3983 7.38679ZM33.2577 39.2274C30.301 41.0469 26.8895 42.184 23.2506 42.184C19.8391 42.184 16.6551 41.2743 13.6984 39.6823L13.0161 39.2274L5.96571 41.0469L7.78518 34.2239L7.33031 33.5416C1.87192 24.4443 4.60112 13.0726 13.471 7.38679C22.3409 1.70097 33.7125 4.65759 39.1709 13.3C44.6293 22.1699 42.1275 33.769 33.2577 39.2274Z" fill="#7A8DF2"/>
</svg>
